# xmcd
#
# Track frame offsets: 
#        150
#        88520
#        113875
#        168627
#        273840
#        333040
#
# Disc length: 4750 seconds
#
# Revision: 0
# Processed by: cddbd v1.5.2PL0 Copyright (c) Steve Scherf et al.
# Submitted via: ExactAudioCopyFreeDBPlugin 1.0
#
DISCID=46128c06
DTITLE=Blues-Rock Collection (Various Artists) - Gekko Musik 25 (Vinyl
DTITLE=)
DYEAR=2010
DGENRE=Blues-Rock
TTITLE0=Grobschnitt - Rockpommel´s Land
TTITLE1=Novalis - Banished Bridge
TTITLE2=Riechmann (Streetmark) - Dreams
TTITLE3=Eloy - Power And The Passion
TTITLE4=Tangerine Dream - Bent Cold Sidewalk
TTITLE5=Parzival - Empty Land
EXTD=
EXTT0=
EXTT1=
EXTT2=
EXTT3=
EXTT4=
EXTT5=
PLAYORDER=
